<svg t="1728835579680" class="icon" viewBox="0 0 1024 1024" version="1.1" xmlns="http://www.w3.org/2000/svg" p-id="10367" width="16" height="16"><path d="M542.695874 1024a75.658765 75.658765 0 0 1-27.10364-6.097206 112.420024 112.420024 0 0 1-31.999208-22.252578l-4.450515-3.871949c-4.984577-4.450516-10.280691-8.411475-15.398784-12.372433s-11.526835-8.901031-16.91196-13.707589l-9.257072-7.877412c-4.940072-4.450516-10.325196-8.54499-15.532299-12.505949a231.827358 231.827358 0 0 1-18.29162-15.042743l-25.456949-20.694897c-12.016392-8.901031-23.632238-18.781176-34.892042-28.349785-5.073588-4.450516-10.236186-8.901031-15.354279-12.951l-29.284393-24.07729-0.578567-0.489556-30.263506-25.056403a23.454217 23.454217 0 0 0-2.225258-1.869217l-1.646691-1.290649-3.159866-2.892836a45.350754 45.350754 0 0 0-3.248876-2.536793 39.520579 39.520579 0 0 1-4.049969-3.293382 63.642373 63.642373 0 0 0-4.183485-3.471402l-3.026351-2.403279-14.24165-11.927381a67.736848 67.736848 0 0 1-7.298845-6.319733c-5.162598-4.806557-6.720279-6.230722-19.003702-6.230722H59.191858c-5.029083 0-5.78567-0.445052-7.031815-1.112628a15.309774 15.309774 0 0 0-3.649423-1.424165 15.532299 15.532299 0 0 0-2.714814-0.489557 11.571341 11.571341 0 0 1-3.204372-0.712083 66.757734 66.757734 0 0 1-21.050938-13.351546l-16.021857-21.095444A45.172733 45.172733 0 0 1 0 719.05067V314.721327L2.180753 303.016471l1.735701-4.450516a57.411651 57.411651 0 0 1 6.097206-12.550454A64.176435 64.176435 0 0 1 35.604125 263.273366a15.443289 15.443289 0 0 0 1.602186-0.934608 12.817485 12.817485 0 0 1 2.403278-1.246144 166.67181 166.67181 0 0 1 58.568785-7.743897c10.10267 0 20.249846 0.311536 30.085486 0.578567 8.901031 0.267031 17.401516 0.534062 25.056403 0.534061h58.746806a13.841104 13.841104 0 0 0 11.259804-4.450515l17.535032-14.642196c2.581299-2.358773 5.118093-4.450516 7.565876-6.497753s4.717547-3.916454 7.07632-6.052702l58.568786-50.023795 0.489556-0.445052 11.971887-10.19168 2.5813-2.358774a51.893012 51.893012 0 0 1 4.940072-4.227989l28.883846-24.477836c0.934608-0.845598 1.55768-1.335155 2.180753-1.824712l1.691196-1.335154 7.521371-6.542258 0.489557-0.489557 94.884993-80.109281 0.756587-0.667577 1.29065-1.29065 16.288887-13.885609a14.063629 14.063629 0 0 1 1.913722-1.602185l1.424165-1.068124a40.054641 40.054641 0 0 0 3.248876-2.84833 34.981053 34.981053 0 0 1 3.827444-3.248876l1.201639-0.890104a69.116507 69.116507 0 0 1 6.497753-4.450515l0.534061-0.311536 6.097207-3.159866 0.890103-0.267031a6.275227 6.275227 0 0 0 1.37966-0.489557 8.901031 8.901031 0 0 0 2.403278-1.335155 6.809289 6.809289 0 0 1 2.225258-1.157134 8.188949 8.188949 0 0 1 2.803825-0.712082 14.419671 14.419671 0 0 0 2.269763-0.356041 20.783908 20.783908 0 0 0 3.426897-1.157135 16.555918 16.555918 0 0 1 7.120825-1.513175 56.254517 56.254517 0 0 1 31.598661 6.008196l19.181722 17.00097a46.107342 46.107342 0 0 1 9.479598 26.436063V975.044328a45.795806 45.795806 0 0 1-15.042743 31.910197 56.744074 56.744074 0 0 1-21.985547 14.33066 48.154579 48.154579 0 0 1-15.843835 2.714815z m-351.946775-315.319031a188.434831 188.434831 0 0 1 37.873888 2.670309c1.157134 0.267031 2.84833 0.534062 4.450516 0.801093s3.115361 0.489557 4.138979 0.712083a76.014807 76.014807 0 0 1 27.771218 15.665815l11.971887 10.147175c1.335155 1.112629 2.403278 1.913722 3.515907 2.75932l2.670309 2.091742 136.408304 112.197499 1.157134 1.023618 2.091742 1.824712 20.561382 16.689433 0.890103 0.756588 0.712083 0.667577 9.880145 8.188949c4.22799 3.159866 8.055433 6.141712 12.238918 9.92465l20.071825 16.155371 0.534062 0.489557 7.16533 5.919186 0.489557 0.489557 16.689433 13.351546 2.269763 1.958227 0.400547 0.356042 0.26703 0.222525 0.267031 0.222526 2.67031 2.358773 1.201639 0.979114a22.252578 22.252578 0 0 0 7.921918 4.940072V82.448917l-51.937517 42.546929-0.578567 0.534062-2.047238 1.824712-59.147352 50.557857-2.536794 2.136247c-1.112629 0.890103-2.136247 1.780206-3.426897 2.981846l-23.498722 19.760289a31.153609 31.153609 0 0 1-3.426897 2.803825 45.217239 45.217239 0 0 0-2.714815 2.136248l-41.211775 35.248083-1.157134 0.890103a27.815723 27.815723 0 0 0-2.225257 1.780207l-1.557681 1.46867-0.356041 0.311536-0.712083 0.623072-1.157134 0.756588a68.44893 68.44893 0 0 0-4.940072 4.450515l-7.832908 6.275227-0.489556 0.445052-39.120032 33.334362-5.251609 4.450515c-1.691196 1.37966-4.450516 3.782938-6.586763 5.69666a105.210189 105.210189 0 0 1-20.338856 12.906496 14.108134 14.108134 0 0 1-4.762052 1.780206l-2.892835 0.667577a25.63497 25.63497 0 0 0-3.115361 1.068124 20.472372 20.472372 0 0 1-5.429629 1.513175 38.853001 38.853001 0 0 1-4.450516 0H75.61426c-4.450516 0-7.031815 1.023619-7.031814 6.230722v378.605363c0 2.625804 1.602186 3.159866 4.138979 3.159866h96.220148c6.764784-0.578567 14.375165-0.712082 21.807526-0.712082z m499.837409 196.223233h-4.895568a32.132723 32.132723 0 0 1-28.57231-11.081784 22.608619 22.608619 0 0 1-6.141711-8.901031l-1.023619-2.981845c-2.981845-8.901031-2.981845-8.901031-1.201639-14.642197l1.55768-5.385124c4.851062-18.069093 20.828413-21.451485 34.936548-24.477835h0.890103a17.134485 17.134485 0 0 0 3.827443-1.246145 14.197145 14.197145 0 0 1 3.916454-1.157134l3.337887-0.445051a23.587733 23.587733 0 0 0 6.052701-1.335155l59.770425-22.252578a13.974619 13.974619 0 0 0 1.780206-1.023619 12.461444 12.461444 0 0 1 1.424165-0.845598l6.675773-3.426897a15.665815 15.665815 0 0 1 2.091743-1.068124l1.290649-0.623072 13.084516-7.120825a279.670401 279.670401 0 0 0 32.088218-22.252578l9.346082-7.07632 2.047238-1.46867a35.604125 35.604125 0 0 0 3.738433-2.84833l36.004671-35.337094c2.625804-3.337887 5.474134-6.720279 8.233454-10.01366a219.009873 219.009873 0 0 0 17.802062-23.187186l11.927382-19.137217 5.830176-10.948269a222.525781 222.525781 0 0 0 17.134485-36.983784l7.432361-22.252578 0.667577-1.958227a110.150261 110.150261 0 0 0 5.60765-21.629506 33.200846 33.200846 0 0 1 1.513175-7.209836 32.533269 32.533269 0 0 0 1.602186-9.568608 39.78761 39.78761 0 0 1 1.513175-8.500485 41.834847 41.834847 0 0 0 1.557681-8.322464l1.023618-51.403455a117.137571 117.137571 0 0 0-2.759319-27.993744 43.437032 43.437032 0 0 1-0.845598-8.54499 32.755795 32.755795 0 0 0-1.157135-9.257072l-13.351546-47.487002-24.299816-51.982022-1.335154-2.536794-0.400547-0.756588-21.718516-32.355248-0.267031-0.311536v-0.222526l-21.050939-25.056403-1.958227-1.869216a31.153609 31.153609 0 0 1-3.248876-3.204372l-12.995505-13.129021-0.489557-0.445051-22.964661-19.315238-0.578567-0.445052-0.578567-0.445051-0.890103-0.712083-0.756588-0.623072h-0.534061l-13.351547-9.791134-0.445052-0.267031-4.450515-2.93734a292.576896 292.576896 0 0 0-49.71226-27.548692l-37.784877-14.019124a5.429629 5.429629 0 0 1-1.557681-0.667578 7.16533 7.16533 0 0 0-1.958227-0.845598l-20.427866-4.940072a24.477836 24.477836 0 0 1-4.22799-1.335155 21.49599 21.49599 0 0 0-4.450516-1.290649c-1.646691-0.267031-2.670309-0.356041-3.515907-0.445052a15.576805 15.576805 0 0 1-5.029083-1.201639 39.743104 39.743104 0 0 1-23.187186-17.08998 9.435093 9.435093 0 0 0-1.068124-1.46867V165.94059c0-0.311536 0-0.756588-0.489557-1.602186l-0.489556-1.424165a38.853001 38.853001 0 0 1-2.67031-13.351546 37.384331 37.384331 0 0 1 18.425135-26.703094 26.703094 26.703094 0 0 1 14.953732-4.049969h7.432361l19.226228 4.183484 2.492289 0.801093a31.554156 31.554156 0 0 0 6.186216 1.646691l17.802063 4.450516a46.685909 46.685909 0 0 0 5.029082 1.735701l3.337887 1.068123 2.803825 1.20164c1.735701 0.623072 3.337887 1.201639 5.69666 1.913721a40.054641 40.054641 0 0 1 4.450516 1.602186l3.649422 1.37966 24.388826 10.058165c9.746629 4.22799 19.137217 9.212567 28.171764 14.063629l10.636732 5.652155a174.638233 174.638233 0 0 1 16.644928 10.325196c3.649423 2.447784 7.387856 4.984577 11.170795 7.254341l25.857495 19.448753L950.941671 285.214408l0.845598 1.20164 0.356041 0.534061 0.845598 1.20164 1.246144 1.780206 13.351547 20.694898a15.576805 15.576805 0 0 1 1.37966 2.403278l0.756588 1.513175 13.351547 24.477836a63.731384 63.731384 0 0 1 4.984577 10.725743c0.667577 1.691196 1.335155 3.426897 2.091742 5.162598l5.296114 11.704856a201.741873 201.741873 0 0 1 8.055433 22.653124 137.476427 137.476427 0 0 0 4.450516 13.351547 21.40698 21.40698 0 0 1 1.646691 5.874681c0 0.845598 0.311536 1.735701 0.534062 2.892835l4.450515 17.490526a51.091919 51.091919 0 0 1 2.536794 10.725743c0.400546 2.358773 0.801093 4.806557 1.37966 7.25434A421.063282 421.063282 0 0 1 1023.618591 496.6139v30.664053a142.4165 142.4165 0 0 1-2.091743 27.19265c-0.578567 3.649423-1.246144 7.743897-1.824711 13.351547a175.39482 175.39482 0 0 1-4.049969 23.454217 270.413329 270.413329 0 0 0-2.803825 13.351547l-3.382392 13.351547c-0.623072 2.403278-0.623072 2.403278-0.756587 2.581299a4.094474 4.094474 0 0 0-0.578568 1.068123 25.857496 25.857496 0 0 0-1.513175 4.450516 33.912929 33.912929 0 0 1-1.068124 3.693928l-5.607649 16.333392a40.855733 40.855733 0 0 1-1.958227 5.162598l-1.157134 2.714815c-0.445052 1.068124-0.311536 0.845598-0.445052 1.246144l-0.311536 0.934609-2.091742 3.916453-0.311536 0.667578-2.84833 6.675773a210.019832 210.019832 0 0 1-13.841104 28.616816l-9.702124 17.312505a77.884023 77.884023 0 0 1-3.337887 4.940073l-1.157134 1.64669-36.271702 48.955672-0.267031 0.267031-0.267031 0.267031-0.979113 1.023619-5.029083 5.78567a185.363975 185.363975 0 0 1-16.644928 17.802062l-0.801093 0.667578-0.845598 0.712082-6.453248 6.052701a436.328551 436.328551 0 0 1-34.001939 28.216269l-74.14559 43.926589a279.981937 279.981937 0 0 1-35.203578 14.375166l-8.45598 2.714814c-1.513175 0.534062-2.670309 0.801093-3.738433 1.068124a30.129991 30.129991 0 0 0-4.806557 1.513175 142.060458 142.060458 0 0 1-27.415176 7.298846l-8.277959 1.691196a16.911959 16.911959 0 0 0-3.871949 1.37966 9.791134 9.791134 0 0 1-4.717546 1.246144z m22.653124-219.899976c-2.225258 0-4.450516 0-6.720279-0.311536h-2.625804c-3.916454-0.267031-4.13898-0.356041-5.429629-1.201639a20.561382 20.561382 0 0 0-2.269763-1.246145 34.936548 34.936548 0 0 1-16.288887-14.909227l-4.450516-15.265269a38.763991 38.763991 0 0 1 8.411475-20.516877l49.934785-37.695867a44.861197 44.861197 0 0 0 4.13898-4.895567c0.845598-1.068124 1.691196-2.225258 2.670309-3.337887a105.076674 105.076674 0 0 0 12.416939-19.671279l1.379659-2.581299 6.141712-15.843835a132.224819 132.224819 0 0 0 5.874681-35.604125 128.308365 128.308365 0 0 0-18.29162-62.040188l-3.560412-5.518639v-0.222526l-0.712083-0.890103-18.425134-20.872918a136.452809 136.452809 0 0 0-24.922888-17.134486l-0.801092-0.489556-16.600424-12.728475a34.669517 34.669517 0 0 1-6.230722-14.686701c0-0.667577-0.445052-1.46867-0.712082-2.225258a11.793866 11.793866 0 0 1-0.845598-3.159866l3.204371-12.283423v-0.356042l2.269763-3.738433 0.267031-0.489557 3.248877-4.806556a26.124527 26.124527 0 0 1 8.901031-7.031815 31.821187 31.821187 0 0 1 17.223495-3.782938h5.429629a155.768046 155.768046 0 0 1 52.872126 31.153609l18.247114 17.802062 30.664052 46.463383a45.039218 45.039218 0 0 1 3.426897 8.901032c0.623072 2.047237 1.29065 4.13898 2.269763 6.453247l2.803825 7.16533 0.222526 0.845598a8.589495 8.589495 0 0 0 0.534062 1.735701l0.489556 1.20164a30.708558 30.708558 0 0 1 1.468671 7.25434 41.211775 41.211775 0 0 0 0.890103 5.296114 16.644928 16.644928 0 0 0 1.157134 3.02635 13.084516 13.084516 0 0 1 1.424165 5.385124v2.937341c0 2.403278 0.311536 4.450516 0.578567 6.230721a123.679829 123.679829 0 0 1 0.445051 35.604125v0.801093c0 1.201639 0 2.803825-0.311536 4.450516a93.460828 93.460828 0 0 1-1.424165 13.351547l-15.665815 47.086455c-4.049969 6.942804-6.408742 11.126289-7.966423 13.885608a75.124704 75.124704 0 0 1-8.099938 12.194413l-8.099938 10.859258-16.822949 18.336125a179.133253 179.133253 0 0 1-26.436063 20.828413l-7.031815 4.094474-3.204371 2.002732-3.026351 1.869217-13.351547 6.987309a27.281661 27.281661 0 0 1-8.678505 1.335155z" fill="#0875FF" p-id="10368"></path></svg>